<mxfile host="65bd71144e">
    <diagram id="vPcT3iFOvlTVgDfta2zC" name="Page-1">
        <mxGraphModel dx="1411" dy="1020" grid="1" gridSize="10" guides="1" tooltips="1" connect="1" arrows="1" fold="1" page="1" pageScale="1" pageWidth="827" pageHeight="1169" math="0" shadow="0">
            <root>
                <mxCell id="0"/>
                <mxCell id="1" parent="0"/>
                <mxCell id="4" value="" style="edgeStyle=none;html=1;" edge="1" parent="1" source="2" target="3">
                    <mxGeometry relative="1" as="geometry"/>
                </mxCell>
                <mxCell id="2" value="INICIO" style="ellipse;whiteSpace=wrap;html=1;fillColor=#6d8764;fontColor=#ffffff;strokeColor=#3A5431;" vertex="1" parent="1">
                    <mxGeometry x="294" y="50" width="120" height="80" as="geometry"/>
                </mxCell>
                <mxCell id="6" value="" style="edgeStyle=none;html=1;" edge="1" parent="1" source="3" target="5">
                    <mxGeometry relative="1" as="geometry"/>
                </mxCell>
                <mxCell id="3" value="dados" style="shape=parallelogram;perimeter=parallelogramPerimeter;whiteSpace=wrap;html=1;fixedSize=1;fillColor=#647687;fontColor=#ffffff;strokeColor=#314354;" vertex="1" parent="1">
                    <mxGeometry x="294" y="190" width="120" height="60" as="geometry"/>
                </mxCell>
                <mxCell id="8" value="" style="edgeStyle=none;html=1;" edge="1" parent="1" source="5" target="7">
                    <mxGeometry relative="1" as="geometry"/>
                </mxCell>
                <mxCell id="5" value="uno = 0&lt;br&gt;dos = 0&lt;br&gt;tres = 0&lt;br&gt;cuatro = 0&lt;br&gt;cinco = 0&lt;br&gt;seis = 0&lt;br&gt;numrandom = [randit(1,6) for _ in range(dados)]" style="whiteSpace=wrap;html=1;fillColor=#76608a;fontColor=#ffffff;strokeColor=#432D57;" vertex="1" parent="1">
                    <mxGeometry x="220" y="330" width="266" height="140" as="geometry"/>
                </mxCell>
                <mxCell id="10" value="" style="edgeStyle=none;html=1;" edge="1" parent="1" source="7" target="9">
                    <mxGeometry relative="1" as="geometry"/>
                </mxCell>
                <mxCell id="49" value="" style="edgeStyle=none;html=1;" edge="1" parent="1" source="15" target="48">
                    <mxGeometry relative="1" as="geometry"/>
                </mxCell>
                <mxCell id="57" value="" style="edgeStyle=none;html=1;" edge="1" parent="1" source="7" target="56">
                    <mxGeometry relative="1" as="geometry"/>
                </mxCell>
                <mxCell id="7" value="dados != 'X'" style="rhombus;whiteSpace=wrap;html=1;fillColor=#e3c800;fontColor=#000000;strokeColor=#B09500;" vertex="1" parent="1">
                    <mxGeometry x="314" y="510" width="80" height="80" as="geometry"/>
                </mxCell>
                <mxCell id="16" value="" style="edgeStyle=none;html=1;" edge="1" parent="1" source="9" target="15">
                    <mxGeometry relative="1" as="geometry"/>
                </mxCell>
                <mxCell id="9" value="numrandom" style="shape=document;whiteSpace=wrap;html=1;boundedLbl=1;fillColor=#f0a30a;fontColor=#000000;strokeColor=#BD7000;" vertex="1" parent="1">
                    <mxGeometry x="294" y="620" width="120" height="80" as="geometry"/>
                </mxCell>
                <mxCell id="18" value="" style="edgeStyle=none;html=1;" edge="1" parent="1" source="15" target="17">
                    <mxGeometry relative="1" as="geometry"/>
                </mxCell>
                <mxCell id="15" value="num ,numrandom" style="shape=hexagon;perimeter=hexagonPerimeter2;whiteSpace=wrap;html=1;fixedSize=1;fillColor=#fa6800;fontColor=#000000;strokeColor=#C73500;" vertex="1" parent="1">
                    <mxGeometry x="294" y="740" width="120" height="80" as="geometry"/>
                </mxCell>
                <mxCell id="24" value="" style="edgeStyle=none;html=1;" edge="1" parent="1" source="17" target="20">
                    <mxGeometry relative="1" as="geometry"/>
                </mxCell>
                <mxCell id="34" value="" style="edgeStyle=none;html=1;" edge="1" parent="1" source="17" target="33">
                    <mxGeometry relative="1" as="geometry"/>
                </mxCell>
                <mxCell id="17" value="num = 1" style="rhombus;whiteSpace=wrap;html=1;strokeColor=#B09500;fillColor=#e3c800;fontColor=#000000;" vertex="1" parent="1">
                    <mxGeometry x="313" y="850" width="80" height="80" as="geometry"/>
                </mxCell>
                <mxCell id="25" value="" style="edgeStyle=none;html=1;" edge="1" parent="1" source="20" target="21">
                    <mxGeometry relative="1" as="geometry"/>
                </mxCell>
                <mxCell id="42" value="" style="edgeStyle=none;html=1;" edge="1" parent="1" source="20" target="35">
                    <mxGeometry relative="1" as="geometry"/>
                </mxCell>
                <mxCell id="20" value="num = 2" style="rhombus;whiteSpace=wrap;html=1;strokeColor=#B09500;fillColor=#e3c800;fontColor=#000000;" vertex="1" parent="1">
                    <mxGeometry x="314" y="960" width="80" height="80" as="geometry"/>
                </mxCell>
                <mxCell id="26" value="" style="edgeStyle=none;html=1;" edge="1" parent="1" source="21" target="22">
                    <mxGeometry relative="1" as="geometry"/>
                </mxCell>
                <mxCell id="41" value="" style="edgeStyle=none;html=1;" edge="1" parent="1" source="21" target="36">
                    <mxGeometry relative="1" as="geometry"/>
                </mxCell>
                <mxCell id="21" value="num = 3" style="rhombus;whiteSpace=wrap;html=1;strokeColor=#B09500;fillColor=#e3c800;fontColor=#000000;" vertex="1" parent="1">
                    <mxGeometry x="314" y="1060" width="80" height="80" as="geometry"/>
                </mxCell>
                <mxCell id="27" value="" style="edgeStyle=none;html=1;" edge="1" parent="1" source="22" target="23">
                    <mxGeometry relative="1" as="geometry"/>
                </mxCell>
                <mxCell id="43" value="" style="edgeStyle=none;html=1;" edge="1" parent="1" source="22" target="37">
                    <mxGeometry relative="1" as="geometry"/>
                </mxCell>
                <mxCell id="22" value="num = 4" style="rhombus;whiteSpace=wrap;html=1;strokeColor=#B09500;fillColor=#e3c800;fontColor=#000000;" vertex="1" parent="1">
                    <mxGeometry x="314" y="1160" width="80" height="80" as="geometry"/>
                </mxCell>
                <mxCell id="29" value="" style="edgeStyle=none;html=1;" edge="1" parent="1" source="23" target="28">
                    <mxGeometry relative="1" as="geometry"/>
                </mxCell>
                <mxCell id="44" value="" style="edgeStyle=none;html=1;" edge="1" parent="1" source="23" target="38">
                    <mxGeometry relative="1" as="geometry"/>
                </mxCell>
                <mxCell id="23" value="num = 5" style="rhombus;whiteSpace=wrap;html=1;strokeColor=#B09500;fillColor=#e3c800;fontColor=#000000;" vertex="1" parent="1">
                    <mxGeometry x="314" y="1270" width="80" height="80" as="geometry"/>
                </mxCell>
                <mxCell id="32" value="" style="edgeStyle=none;html=1;" edge="1" parent="1" source="28" target="31">
                    <mxGeometry relative="1" as="geometry"/>
                </mxCell>
                <mxCell id="45" value="" style="edgeStyle=none;html=1;" edge="1" parent="1" source="28" target="39">
                    <mxGeometry relative="1" as="geometry"/>
                </mxCell>
                <mxCell id="28" value="num = 6" style="rhombus;whiteSpace=wrap;html=1;strokeColor=#B09500;fillColor=#e3c800;fontColor=#000000;" vertex="1" parent="1">
                    <mxGeometry x="314" y="1380" width="80" height="80" as="geometry"/>
                </mxCell>
                <mxCell id="46" value="" style="edgeStyle=none;html=1;" edge="1" parent="1" source="31" target="40">
                    <mxGeometry relative="1" as="geometry"/>
                </mxCell>
                <mxCell id="47" style="edgeStyle=none;html=1;" edge="1" parent="1" source="31">
                    <mxGeometry relative="1" as="geometry">
                        <mxPoint x="354" y="490" as="targetPoint"/>
                        <Array as="points">
                            <mxPoint x="354" y="1590"/>
                            <mxPoint x="160" y="1590"/>
                            <mxPoint x="160" y="490"/>
                        </Array>
                    </mxGeometry>
                </mxCell>
                <mxCell id="31" value="num = 'X'" style="rhombus;whiteSpace=wrap;html=1;strokeColor=#B09500;fillColor=#e3c800;fontColor=#000000;" vertex="1" parent="1">
                    <mxGeometry x="314" y="1480" width="80" height="80" as="geometry"/>
                </mxCell>
                <mxCell id="33" value="uno += &quot;#&quot;" style="whiteSpace=wrap;html=1;fillColor=#76608a;strokeColor=#432D57;" vertex="1" parent="1">
                    <mxGeometry x="420" y="860" width="120" height="60" as="geometry"/>
                </mxCell>
                <mxCell id="35" value="dos += &quot;#&quot;" style="whiteSpace=wrap;html=1;fillColor=#76608a;strokeColor=#432D57;" vertex="1" parent="1">
                    <mxGeometry x="420" y="970" width="120" height="60" as="geometry"/>
                </mxCell>
                <mxCell id="36" value="tres += &quot;#&quot;" style="whiteSpace=wrap;html=1;fillColor=#76608a;strokeColor=#432D57;" vertex="1" parent="1">
                    <mxGeometry x="420" y="1070" width="120" height="60" as="geometry"/>
                </mxCell>
                <mxCell id="37" value="cuatro += &quot;#&quot;" style="whiteSpace=wrap;html=1;fillColor=#76608a;strokeColor=#432D57;" vertex="1" parent="1">
                    <mxGeometry x="420" y="1170" width="120" height="60" as="geometry"/>
                </mxCell>
                <mxCell id="38" value="cinco += &quot;#&quot;" style="whiteSpace=wrap;html=1;fillColor=#76608a;strokeColor=#432D57;" vertex="1" parent="1">
                    <mxGeometry x="420" y="1280" width="120" height="60" as="geometry"/>
                </mxCell>
                <mxCell id="39" value="seis += &quot;#&quot;" style="whiteSpace=wrap;html=1;fillColor=#76608a;strokeColor=#432D57;" vertex="1" parent="1">
                    <mxGeometry x="420" y="1390" width="120" height="60" as="geometry"/>
                </mxCell>
                <mxCell id="40" value="break" style="whiteSpace=wrap;html=1;fillColor=#76608a;strokeColor=#432D57;" vertex="1" parent="1">
                    <mxGeometry x="420" y="1490" width="120" height="60" as="geometry"/>
                </mxCell>
                <mxCell id="51" value="" style="edgeStyle=none;html=1;" edge="1" parent="1" source="48" target="50">
                    <mxGeometry relative="1" as="geometry"/>
                </mxCell>
                <mxCell id="48" value="uno,dos,tres,cuatro,&lt;br&gt;cinco,seis" style="shape=document;whiteSpace=wrap;html=1;boundedLbl=1;fillColor=#f0a30a;fontColor=#000000;strokeColor=#BD7000;" vertex="1" parent="1">
                    <mxGeometry x="580" y="740" width="120" height="80" as="geometry"/>
                </mxCell>
                <mxCell id="52" style="edgeStyle=none;html=1;" edge="1" parent="1" source="50">
                    <mxGeometry relative="1" as="geometry">
                        <mxPoint x="350" y="490" as="targetPoint"/>
                        <Array as="points">
                            <mxPoint x="640" y="1590"/>
                            <mxPoint x="160" y="1590"/>
                            <mxPoint x="160" y="490"/>
                        </Array>
                    </mxGeometry>
                </mxCell>
                <mxCell id="50" value="dados" style="shape=parallelogram;perimeter=parallelogramPerimeter;whiteSpace=wrap;html=1;fixedSize=1;fillColor=#e51400;fontColor=#ffffff;strokeColor=#B20000;" vertex="1" parent="1">
                    <mxGeometry x="580" y="860" width="120" height="60" as="geometry"/>
                </mxCell>
                <mxCell id="56" value="FIN" style="ellipse;whiteSpace=wrap;html=1;fillColor=#6d8764;fontColor=#ffffff;strokeColor=#3A5431;" vertex="1" parent="1">
                    <mxGeometry x="490" y="520" width="120" height="60" as="geometry"/>
                </mxCell>
            </root>
        </mxGraphModel>
    </diagram>
</mxfile>